# Blender 4.3.2
# www.blender.org
mtllib Diamond.mtl
o Cone
v 0.000000 0.673170 0.643986
v 0.503488 0.673170 0.401518
v 0.627839 0.673170 -0.143300
v 0.279415 0.673170 -0.580211
v -0.279415 0.673170 -0.580211
v -0.627839 0.673170 -0.143300
v -0.503488 0.673170 0.401518
v 0.000000 -0.629727 -0.000000
v 0.000000 0.488219 1.000000
v 0.781831 0.488219 0.623490
v 0.974928 0.488219 -0.222521
v 0.433884 0.488219 -0.900969
v -0.433884 0.488219 -0.900969
v -0.974928 0.488219 -0.222521
v -0.781831 0.488219 0.623490
vn 0.3378 -0.6275 0.7015
vn 0.7591 -0.6275 0.1733
vn 0.6087 -0.6275 -0.4855
vn -0.0000 -0.6275 -0.7786
vn -0.6087 -0.6275 -0.4855
vn -0.0000 1.0000 -0.0000
vn -0.7591 -0.6275 0.1733
vn -0.3378 -0.6275 0.7015
vn 0.2167 0.8663 0.4500
vn 0.4870 0.8663 0.1112
vn 0.3905 0.8663 -0.3114
vn -0.0000 0.8663 -0.4995
vn -0.3905 0.8663 -0.3114
vn -0.4870 0.8663 0.1112
vn -0.2167 0.8663 0.4500
vt 0.250000 0.490000
vt 0.250000 0.250000
vt 0.437640 0.399638
vt 0.483983 0.196595
vt 0.354132 0.033767
vt 0.145868 0.033767
vt 0.016017 0.196595
vt 0.750000 0.404557
vt 0.870837 0.346364
vt 0.900682 0.215608
vt 0.817060 0.110749
vt 0.682940 0.110749
vt 0.599319 0.215608
vt 0.629163 0.346364
vt 0.062360 0.399638
vt 0.750000 0.490000
vt 0.937640 0.399638
vt 0.983983 0.196595
vt 0.854132 0.033767
vt 0.645868 0.033767
vt 0.516017 0.196595
vt 0.562360 0.399638
s 0
f 9/1/1 8/2/1 10/3/1
f 10/3/2 8/2/2 11/4/2
f 11/4/3 8/2/3 12/5/3
f 12/5/4 8/2/4 13/6/4
f 13/6/5 8/2/5 14/7/5
f 1/8/6 2/9/6 3/10/6 4/11/6 5/12/6 6/13/6 7/14/6
f 14/7/7 8/2/7 15/15/7
f 15/15/8 8/2/8 9/1/8
f 2/9/9 1/8/9 9/16/9 10/17/9
f 3/10/10 2/9/10 10/17/10 11/18/10
f 4/11/11 3/10/11 11/18/11 12/19/11
f 5/12/12 4/11/12 12/19/12 13/20/12
f 6/13/13 5/12/13 13/20/13 14/21/13
f 7/14/14 6/13/14 14/21/14 15/22/14
f 1/8/15 7/14/15 15/22/15 9/16/15
